<?xml version="1.0" ?><svg data-name="Layer 2" id="Layer_2" viewBox="0 0 35 35" xmlns="http://www.w3.org/2000/svg"><path d="M25.37,34.75H9.63A9.39,9.39,0,0,1,.25,25.37V9.63A9.39,9.39,0,0,1,9.63.25H25.37a9.39,9.39,0,0,1,9.38,9.38V25.37A9.39,9.39,0,0,1,25.37,34.75ZM9.63,2.75A6.89,6.89,0,0,0,2.75,9.63V25.37a6.89,6.89,0,0,0,6.88,6.88H25.37a6.89,6.89,0,0,0,6.88-6.88V9.63a6.89,6.89,0,0,0-6.88-6.88Z"/><path d="M17.5,26.53a9,9,0,1,1,9-9A9,9,0,0,1,17.5,26.53ZM17.5,11A6.53,6.53,0,1,0,24,17.5,6.54,6.54,0,0,0,17.5,11Z"/><path d="M26.52,9.84a1.5,1.5,0,0,0,0-3,1.5,1.5,0,0,0,0,3Z"/></svg>